<?xml version="1.0" encoding="utf-8" standalone="no"?>
<!DOCTYPE svg PUBLIC "-//W3C//DTD SVG 1.1//EN"
  "http://www.w3.org/Graphics/SVG/1.1/DTD/svg11.dtd">
<svg xmlns:xlink="http://www.w3.org/1999/xlink" width="720pt" height="432pt" viewBox="0 0 720 432" xmlns="http://www.w3.org/2000/svg" version="1.1">
 <metadata>
  <rdf:RDF xmlns:dc="http://purl.org/dc/elements/1.1/" xmlns:cc="http://creativecommons.org/ns#" xmlns:rdf="http://www.w3.org/1999/02/22-rdf-syntax-ns#">
   <cc:Work>
    <dc:type rdf:resource="http://purl.org/dc/dcmitype/StillImage"/>
    <dc:date>2025-09-28T22:15:44.154535</dc:date>
    <dc:format>image/svg+xml</dc:format>
    <dc:creator>
     <cc:Agent>
      <dc:title>Matplotlib v3.8.0, https://matplotlib.org/</dc:title>
     </cc:Agent>
    </dc:creator>
   </cc:Work>
  </rdf:RDF>
 </metadata>
 <defs>
  <style type="text/css">*{stroke-linejoin: round; stroke-linecap: butt}</style>
 </defs>
 <g id="figure_1">
  <g id="patch_1">
   <path d="M 0 432 
L 720 432 
L 720 0 
L 0 0 
z
" style="fill: #ffffff"/>
  </g>
  <g id="axes_1">
   <g id="patch_2">
    <path d="M 90 384.48 
L 648 384.48 
L 648 51.84 
L 90 51.84 
z
" style="fill: #ffffff"/>
   </g>
   <g id="matplotlib.axis_1">
    <g id="xtick_1">
     <g id="line2d_1">
      <path d="M 115.363636 384.48 
L 115.363636 51.84 
" clip-path="url(#pb39b55ddf3)" style="fill: none; stroke: #cccccc; stroke-width: 0.8; stroke-linecap: round"/>
     </g>
     <g id="line2d_2"/>
     <g id="text_1">
      <!-- 0 -->
      <g style="fill: #262626" transform="translate(112.583168 395.137812) scale(0.1 -0.1)">
       <defs>
        <path id="ArialMT-30" d="M 266 2259 
Q 266 3072 433 3567 
Q 600 4063 929 4331 
Q 1259 4600 1759 4600 
Q 2128 4600 2406 4451 
Q 2684 4303 2865 4023 
Q 3047 3744 3150 3342 
Q 3253 2941 3253 2259 
Q 3253 1453 3087 958 
Q 2922 463 2592 192 
Q 2263 -78 1759 -78 
Q 1097 -78 719 397 
Q 266 969 266 2259 
z
M 844 2259 
Q 844 1131 1108 757 
Q 1372 384 1759 384 
Q 2147 384 2411 759 
Q 2675 1134 2675 2259 
Q 2675 3391 2411 3762 
Q 2147 4134 1753 4134 
Q 1366 4134 1134 3806 
Q 844 3388 844 2259 
z
" transform="scale(0.015625)"/>
       </defs>
       <use xlink:href="#ArialMT-30"/>
      </g>
     </g>
    </g>
    <g id="xtick_2">
     <g id="line2d_3">
      <path d="M 181.32888 384.48 
L 181.32888 51.84 
" clip-path="url(#pb39b55ddf3)" style="fill: none; stroke: #cccccc; stroke-width: 0.8; stroke-linecap: round"/>
     </g>
     <g id="line2d_4"/>
     <g id="text_2">
      <!-- 100 -->
      <g style="fill: #262626" transform="translate(172.987474 395.137812) scale(0.1 -0.1)">
       <defs>
        <path id="ArialMT-31" d="M 2384 0 
L 1822 0 
L 1822 3584 
Q 1619 3391 1289 3197 
Q 959 3003 697 2906 
L 697 3450 
Q 1169 3672 1522 3987 
Q 1875 4303 2022 4600 
L 2384 4600 
L 2384 0 
z
" transform="scale(0.015625)"/>
       </defs>
       <use xlink:href="#ArialMT-31"/>
       <use xlink:href="#ArialMT-30" x="55.615234"/>
       <use xlink:href="#ArialMT-30" x="111.230469"/>
      </g>
     </g>
    </g>
    <g id="xtick_3">
     <g id="line2d_5">
      <path d="M 247.294125 384.48 
L 247.294125 51.84 
" clip-path="url(#pb39b55ddf3)" style="fill: none; stroke: #cccccc; stroke-width: 0.8; stroke-linecap: round"/>
     </g>
     <g id="line2d_6"/>
     <g id="text_3">
      <!-- 200 -->
      <g style="fill: #262626" transform="translate(238.952718 395.137812) scale(0.1 -0.1)">
       <defs>
        <path id="ArialMT-32" d="M 3222 541 
L 3222 0 
L 194 0 
Q 188 203 259 391 
Q 375 700 629 1000 
Q 884 1300 1366 1694 
Q 2113 2306 2375 2664 
Q 2638 3022 2638 3341 
Q 2638 3675 2398 3904 
Q 2159 4134 1775 4134 
Q 1369 4134 1125 3890 
Q 881 3647 878 3216 
L 300 3275 
Q 359 3922 746 4261 
Q 1134 4600 1788 4600 
Q 2447 4600 2831 4234 
Q 3216 3869 3216 3328 
Q 3216 3053 3103 2787 
Q 2991 2522 2730 2228 
Q 2469 1934 1863 1422 
Q 1356 997 1212 845 
Q 1069 694 975 541 
L 3222 541 
z
" transform="scale(0.015625)"/>
       </defs>
       <use xlink:href="#ArialMT-32"/>
       <use xlink:href="#ArialMT-30" x="55.615234"/>
       <use xlink:href="#ArialMT-30" x="111.230469"/>
      </g>
     </g>
    </g>
    <g id="xtick_4">
     <g id="line2d_7">
      <path d="M 313.259369 384.48 
L 313.259369 51.84 
" clip-path="url(#pb39b55ddf3)" style="fill: none; stroke: #cccccc; stroke-width: 0.8; stroke-linecap: round"/>
     </g>
     <g id="line2d_8"/>
     <g id="text_4">
      <!-- 300 -->
      <g style="fill: #262626" transform="translate(304.917962 395.137812) scale(0.1 -0.1)">
       <defs>
        <path id="ArialMT-33" d="M 269 1209 
L 831 1284 
Q 928 806 1161 595 
Q 1394 384 1728 384 
Q 2125 384 2398 659 
Q 2672 934 2672 1341 
Q 2672 1728 2419 1979 
Q 2166 2231 1775 2231 
Q 1616 2231 1378 2169 
L 1441 2663 
Q 1497 2656 1531 2656 
Q 1891 2656 2178 2843 
Q 2466 3031 2466 3422 
Q 2466 3731 2256 3934 
Q 2047 4138 1716 4138 
Q 1388 4138 1169 3931 
Q 950 3725 888 3313 
L 325 3413 
Q 428 3978 793 4289 
Q 1159 4600 1703 4600 
Q 2078 4600 2393 4439 
Q 2709 4278 2876 4000 
Q 3044 3722 3044 3409 
Q 3044 3113 2884 2869 
Q 2725 2625 2413 2481 
Q 2819 2388 3044 2092 
Q 3269 1797 3269 1353 
Q 3269 753 2831 336 
Q 2394 -81 1725 -81 
Q 1122 -81 723 278 
Q 325 638 269 1209 
z
" transform="scale(0.015625)"/>
       </defs>
       <use xlink:href="#ArialMT-33"/>
       <use xlink:href="#ArialMT-30" x="55.615234"/>
       <use xlink:href="#ArialMT-30" x="111.230469"/>
      </g>
     </g>
    </g>
    <g id="xtick_5">
     <g id="line2d_9">
      <path d="M 379.224613 384.48 
L 379.224613 51.84 
" clip-path="url(#pb39b55ddf3)" style="fill: none; stroke: #cccccc; stroke-width: 0.8; stroke-linecap: round"/>
     </g>
     <g id="line2d_10"/>
     <g id="text_5">
      <!-- 400 -->
      <g style="fill: #262626" transform="translate(370.883207 395.137812) scale(0.1 -0.1)">
       <defs>
        <path id="ArialMT-34" d="M 2069 0 
L 2069 1097 
L 81 1097 
L 81 1613 
L 2172 4581 
L 2631 4581 
L 2631 1613 
L 3250 1613 
L 3250 1097 
L 2631 1097 
L 2631 0 
L 2069 0 
z
M 2069 1613 
L 2069 3678 
L 634 1613 
L 2069 1613 
z
" transform="scale(0.015625)"/>
       </defs>
       <use xlink:href="#ArialMT-34"/>
       <use xlink:href="#ArialMT-30" x="55.615234"/>
       <use xlink:href="#ArialMT-30" x="111.230469"/>
      </g>
     </g>
    </g>
    <g id="xtick_6">
     <g id="line2d_11">
      <path d="M 445.189857 384.48 
L 445.189857 51.84 
" clip-path="url(#pb39b55ddf3)" style="fill: none; stroke: #cccccc; stroke-width: 0.8; stroke-linecap: round"/>
     </g>
     <g id="line2d_12"/>
     <g id="text_6">
      <!-- 500 -->
      <g style="fill: #262626" transform="translate(436.848451 395.137812) scale(0.1 -0.1)">
       <defs>
        <path id="ArialMT-35" d="M 266 1200 
L 856 1250 
Q 922 819 1161 601 
Q 1400 384 1738 384 
Q 2144 384 2425 690 
Q 2706 997 2706 1503 
Q 2706 1984 2436 2262 
Q 2166 2541 1728 2541 
Q 1456 2541 1237 2417 
Q 1019 2294 894 2097 
L 366 2166 
L 809 4519 
L 3088 4519 
L 3088 3981 
L 1259 3981 
L 1013 2750 
Q 1425 3038 1878 3038 
Q 2478 3038 2890 2622 
Q 3303 2206 3303 1553 
Q 3303 931 2941 478 
Q 2500 -78 1738 -78 
Q 1113 -78 717 272 
Q 322 622 266 1200 
z
" transform="scale(0.015625)"/>
       </defs>
       <use xlink:href="#ArialMT-35"/>
       <use xlink:href="#ArialMT-30" x="55.615234"/>
       <use xlink:href="#ArialMT-30" x="111.230469"/>
      </g>
     </g>
    </g>
    <g id="xtick_7">
     <g id="line2d_13">
      <path d="M 511.155101 384.48 
L 511.155101 51.84 
" clip-path="url(#pb39b55ddf3)" style="fill: none; stroke: #cccccc; stroke-width: 0.8; stroke-linecap: round"/>
     </g>
     <g id="line2d_14"/>
     <g id="text_7">
      <!-- 600 -->
      <g style="fill: #262626" transform="translate(502.813695 395.137812) scale(0.1 -0.1)">
       <defs>
        <path id="ArialMT-36" d="M 3184 3459 
L 2625 3416 
Q 2550 3747 2413 3897 
Q 2184 4138 1850 4138 
Q 1581 4138 1378 3988 
Q 1113 3794 959 3422 
Q 806 3050 800 2363 
Q 1003 2672 1297 2822 
Q 1591 2972 1913 2972 
Q 2475 2972 2870 2558 
Q 3266 2144 3266 1488 
Q 3266 1056 3080 686 
Q 2894 316 2569 119 
Q 2244 -78 1831 -78 
Q 1128 -78 684 439 
Q 241 956 241 2144 
Q 241 3472 731 4075 
Q 1159 4600 1884 4600 
Q 2425 4600 2770 4297 
Q 3116 3994 3184 3459 
z
M 888 1484 
Q 888 1194 1011 928 
Q 1134 663 1356 523 
Q 1578 384 1822 384 
Q 2178 384 2434 671 
Q 2691 959 2691 1453 
Q 2691 1928 2437 2201 
Q 2184 2475 1800 2475 
Q 1419 2475 1153 2201 
Q 888 1928 888 1484 
z
" transform="scale(0.015625)"/>
       </defs>
       <use xlink:href="#ArialMT-36"/>
       <use xlink:href="#ArialMT-30" x="55.615234"/>
       <use xlink:href="#ArialMT-30" x="111.230469"/>
      </g>
     </g>
    </g>
    <g id="xtick_8">
     <g id="line2d_15">
      <path d="M 577.120345 384.48 
L 577.120345 51.84 
" clip-path="url(#pb39b55ddf3)" style="fill: none; stroke: #cccccc; stroke-width: 0.8; stroke-linecap: round"/>
     </g>
     <g id="line2d_16"/>
     <g id="text_8">
      <!-- 700 -->
      <g style="fill: #262626" transform="translate(568.778939 395.137812) scale(0.1 -0.1)">
       <defs>
        <path id="ArialMT-37" d="M 303 3981 
L 303 4522 
L 3269 4522 
L 3269 4084 
Q 2831 3619 2401 2847 
Q 1972 2075 1738 1259 
Q 1569 684 1522 0 
L 944 0 
Q 953 541 1156 1306 
Q 1359 2072 1739 2783 
Q 2119 3494 2547 3981 
L 303 3981 
z
" transform="scale(0.015625)"/>
       </defs>
       <use xlink:href="#ArialMT-37"/>
       <use xlink:href="#ArialMT-30" x="55.615234"/>
       <use xlink:href="#ArialMT-30" x="111.230469"/>
      </g>
     </g>
    </g>
    <g id="xtick_9">
     <g id="line2d_17">
      <path d="M 643.085589 384.48 
L 643.085589 51.84 
" clip-path="url(#pb39b55ddf3)" style="fill: none; stroke: #cccccc; stroke-width: 0.8; stroke-linecap: round"/>
     </g>
     <g id="line2d_18"/>
     <g id="text_9">
      <!-- 800 -->
      <g style="fill: #262626" transform="translate(634.744183 395.137812) scale(0.1 -0.1)">
       <defs>
        <path id="ArialMT-38" d="M 1131 2484 
Q 781 2613 612 2850 
Q 444 3088 444 3419 
Q 444 3919 803 4259 
Q 1163 4600 1759 4600 
Q 2359 4600 2725 4251 
Q 3091 3903 3091 3403 
Q 3091 3084 2923 2848 
Q 2756 2613 2416 2484 
Q 2838 2347 3058 2040 
Q 3278 1734 3278 1309 
Q 3278 722 2862 322 
Q 2447 -78 1769 -78 
Q 1091 -78 675 323 
Q 259 725 259 1325 
Q 259 1772 486 2073 
Q 713 2375 1131 2484 
z
M 1019 3438 
Q 1019 3113 1228 2906 
Q 1438 2700 1772 2700 
Q 2097 2700 2305 2904 
Q 2513 3109 2513 3406 
Q 2513 3716 2298 3927 
Q 2084 4138 1766 4138 
Q 1444 4138 1231 3931 
Q 1019 3725 1019 3438 
z
M 838 1322 
Q 838 1081 952 856 
Q 1066 631 1291 507 
Q 1516 384 1775 384 
Q 2178 384 2440 643 
Q 2703 903 2703 1303 
Q 2703 1709 2433 1975 
Q 2163 2241 1756 2241 
Q 1359 2241 1098 1978 
Q 838 1716 838 1322 
z
" transform="scale(0.015625)"/>
       </defs>
       <use xlink:href="#ArialMT-38"/>
       <use xlink:href="#ArialMT-30" x="55.615234"/>
       <use xlink:href="#ArialMT-30" x="111.230469"/>
      </g>
     </g>
    </g>
    <g id="text_10">
     <!-- Epoch -->
     <g style="fill: #262626" transform="translate(354.823438 408.283125) scale(0.1 -0.1)">
      <defs>
       <path id="ArialMT-45" d="M 506 0 
L 506 4581 
L 3819 4581 
L 3819 4041 
L 1113 4041 
L 1113 2638 
L 3647 2638 
L 3647 2100 
L 1113 2100 
L 1113 541 
L 3925 541 
L 3925 0 
L 506 0 
z
" transform="scale(0.015625)"/>
       <path id="ArialMT-70" d="M 422 -1272 
L 422 3319 
L 934 3319 
L 934 2888 
Q 1116 3141 1344 3267 
Q 1572 3394 1897 3394 
Q 2322 3394 2647 3175 
Q 2972 2956 3137 2557 
Q 3303 2159 3303 1684 
Q 3303 1175 3120 767 
Q 2938 359 2589 142 
Q 2241 -75 1856 -75 
Q 1575 -75 1351 44 
Q 1128 163 984 344 
L 984 -1272 
L 422 -1272 
z
M 931 1641 
Q 931 1000 1190 694 
Q 1450 388 1819 388 
Q 2194 388 2461 705 
Q 2728 1022 2728 1688 
Q 2728 2322 2467 2637 
Q 2206 2953 1844 2953 
Q 1484 2953 1207 2617 
Q 931 2281 931 1641 
z
" transform="scale(0.015625)"/>
       <path id="ArialMT-6f" d="M 213 1659 
Q 213 2581 725 3025 
Q 1153 3394 1769 3394 
Q 2453 3394 2887 2945 
Q 3322 2497 3322 1706 
Q 3322 1066 3130 698 
Q 2938 331 2570 128 
Q 2203 -75 1769 -75 
Q 1072 -75 642 372 
Q 213 819 213 1659 
z
M 791 1659 
Q 791 1022 1069 705 
Q 1347 388 1769 388 
Q 2188 388 2466 706 
Q 2744 1025 2744 1678 
Q 2744 2294 2464 2611 
Q 2184 2928 1769 2928 
Q 1347 2928 1069 2612 
Q 791 2297 791 1659 
z
" transform="scale(0.015625)"/>
       <path id="ArialMT-63" d="M 2588 1216 
L 3141 1144 
Q 3050 572 2676 248 
Q 2303 -75 1759 -75 
Q 1078 -75 664 370 
Q 250 816 250 1647 
Q 250 2184 428 2587 
Q 606 2991 970 3192 
Q 1334 3394 1763 3394 
Q 2303 3394 2647 3120 
Q 2991 2847 3088 2344 
L 2541 2259 
Q 2463 2594 2264 2762 
Q 2066 2931 1784 2931 
Q 1359 2931 1093 2626 
Q 828 2322 828 1663 
Q 828 994 1084 691 
Q 1341 388 1753 388 
Q 2084 388 2306 591 
Q 2528 794 2588 1216 
z
" transform="scale(0.015625)"/>
       <path id="ArialMT-68" d="M 422 0 
L 422 4581 
L 984 4581 
L 984 2938 
Q 1378 3394 1978 3394 
Q 2347 3394 2619 3248 
Q 2891 3103 3008 2847 
Q 3125 2591 3125 2103 
L 3125 0 
L 2563 0 
L 2563 2103 
Q 2563 2525 2380 2717 
Q 2197 2909 1863 2909 
Q 1613 2909 1392 2779 
Q 1172 2650 1078 2428 
Q 984 2206 984 1816 
L 984 0 
L 422 0 
z
" transform="scale(0.015625)"/>
      </defs>
      <use xlink:href="#ArialMT-45"/>
      <use xlink:href="#ArialMT-70" x="66.699219"/>
      <use xlink:href="#ArialMT-6f" x="122.314453"/>
      <use xlink:href="#ArialMT-63" x="177.929688"/>
      <use xlink:href="#ArialMT-68" x="227.929688"/>
     </g>
    </g>
   </g>
   <g id="matplotlib.axis_2">
    <g id="ytick_1">
     <g id="line2d_19">
      <path d="M 90 374.20457 
L 648 374.20457 
" clip-path="url(#pb39b55ddf3)" style="fill: none; stroke: #cccccc; stroke-width: 0.8; stroke-linecap: round"/>
     </g>
     <g id="line2d_20"/>
     <g id="text_11">
      <!-- 0.4 -->
      <g style="fill: #262626" transform="translate(72.6 377.783476) scale(0.1 -0.1)">
       <defs>
        <path id="ArialMT-2e" d="M 581 0 
L 581 641 
L 1222 641 
L 1222 0 
L 581 0 
z
" transform="scale(0.015625)"/>
       </defs>
       <use xlink:href="#ArialMT-30"/>
       <use xlink:href="#ArialMT-2e" x="55.615234"/>
       <use xlink:href="#ArialMT-34" x="83.398438"/>
      </g>
     </g>
    </g>
    <g id="ytick_2">
     <g id="line2d_21">
      <path d="M 90 326.896911 
L 648 326.896911 
" clip-path="url(#pb39b55ddf3)" style="fill: none; stroke: #cccccc; stroke-width: 0.8; stroke-linecap: round"/>
     </g>
     <g id="line2d_22"/>
     <g id="text_12">
      <!-- 0.5 -->
      <g style="fill: #262626" transform="translate(72.6 330.475817) scale(0.1 -0.1)">
       <use xlink:href="#ArialMT-30"/>
       <use xlink:href="#ArialMT-2e" x="55.615234"/>
       <use xlink:href="#ArialMT-35" x="83.398438"/>
      </g>
     </g>
    </g>
    <g id="ytick_3">
     <g id="line2d_23">
      <path d="M 90 279.589253 
L 648 279.589253 
" clip-path="url(#pb39b55ddf3)" style="fill: none; stroke: #cccccc; stroke-width: 0.8; stroke-linecap: round"/>
     </g>
     <g id="line2d_24"/>
     <g id="text_13">
      <!-- 0.6 -->
      <g style="fill: #262626" transform="translate(72.6 283.168159) scale(0.1 -0.1)">
       <use xlink:href="#ArialMT-30"/>
       <use xlink:href="#ArialMT-2e" x="55.615234"/>
       <use xlink:href="#ArialMT-36" x="83.398438"/>
      </g>
     </g>
    </g>
    <g id="ytick_4">
     <g id="line2d_25">
      <path d="M 90 232.281594 
L 648 232.281594 
" clip-path="url(#pb39b55ddf3)" style="fill: none; stroke: #cccccc; stroke-width: 0.8; stroke-linecap: round"/>
     </g>
     <g id="line2d_26"/>
     <g id="text_14">
      <!-- 0.7 -->
      <g style="fill: #262626" transform="translate(72.6 235.8605) scale(0.1 -0.1)">
       <use xlink:href="#ArialMT-30"/>
       <use xlink:href="#ArialMT-2e" x="55.615234"/>
       <use xlink:href="#ArialMT-37" x="83.398438"/>
      </g>
     </g>
    </g>
    <g id="ytick_5">
     <g id="line2d_27">
      <path d="M 90 184.973936 
L 648 184.973936 
" clip-path="url(#pb39b55ddf3)" style="fill: none; stroke: #cccccc; stroke-width: 0.8; stroke-linecap: round"/>
     </g>
     <g id="line2d_28"/>
     <g id="text_15">
      <!-- 0.8 -->
      <g style="fill: #262626" transform="translate(72.6 188.552842) scale(0.1 -0.1)">
       <use xlink:href="#ArialMT-30"/>
       <use xlink:href="#ArialMT-2e" x="55.615234"/>
       <use xlink:href="#ArialMT-38" x="83.398438"/>
      </g>
     </g>
    </g>
    <g id="ytick_6">
     <g id="line2d_29">
      <path d="M 90 137.666277 
L 648 137.666277 
" clip-path="url(#pb39b55ddf3)" style="fill: none; stroke: #cccccc; stroke-width: 0.8; stroke-linecap: round"/>
     </g>
     <g id="line2d_30"/>
     <g id="text_16">
      <!-- 0.9 -->
      <g style="fill: #262626" transform="translate(72.6 141.245183) scale(0.1 -0.1)">
       <defs>
        <path id="ArialMT-39" d="M 350 1059 
L 891 1109 
Q 959 728 1153 556 
Q 1347 384 1650 384 
Q 1909 384 2104 503 
Q 2300 622 2425 820 
Q 2550 1019 2634 1356 
Q 2719 1694 2719 2044 
Q 2719 2081 2716 2156 
Q 2547 1888 2255 1720 
Q 1963 1553 1622 1553 
Q 1053 1553 659 1965 
Q 266 2378 266 3053 
Q 266 3750 677 4175 
Q 1088 4600 1706 4600 
Q 2153 4600 2523 4359 
Q 2894 4119 3086 3673 
Q 3278 3228 3278 2384 
Q 3278 1506 3087 986 
Q 2897 466 2520 194 
Q 2144 -78 1638 -78 
Q 1100 -78 759 220 
Q 419 519 350 1059 
z
M 2653 3081 
Q 2653 3566 2395 3850 
Q 2138 4134 1775 4134 
Q 1400 4134 1122 3828 
Q 844 3522 844 3034 
Q 844 2597 1108 2323 
Q 1372 2050 1759 2050 
Q 2150 2050 2401 2323 
Q 2653 2597 2653 3081 
z
" transform="scale(0.015625)"/>
       </defs>
       <use xlink:href="#ArialMT-30"/>
       <use xlink:href="#ArialMT-2e" x="55.615234"/>
       <use xlink:href="#ArialMT-39" x="83.398438"/>
      </g>
     </g>
    </g>
    <g id="ytick_7">
     <g id="line2d_31">
      <path d="M 90 90.358619 
L 648 90.358619 
" clip-path="url(#pb39b55ddf3)" style="fill: none; stroke: #cccccc; stroke-width: 0.8; stroke-linecap: round"/>
     </g>
     <g id="line2d_32"/>
     <g id="text_17">
      <!-- 1.0 -->
      <g style="fill: #262626" transform="translate(72.6 93.937525) scale(0.1 -0.1)">
       <use xlink:href="#ArialMT-31"/>
       <use xlink:href="#ArialMT-2e" x="55.615234"/>
       <use xlink:href="#ArialMT-30" x="83.398438"/>
      </g>
     </g>
    </g>
    <g id="text_18">
     <!-- Mean Squared Error -->
     <g style="fill: #262626" transform="translate(66.6125 263.456875) rotate(-90) scale(0.1 -0.1)">
      <defs>
       <path id="ArialMT-4d" d="M 475 0 
L 475 4581 
L 1388 4581 
L 2472 1338 
Q 2622 884 2691 659 
Q 2769 909 2934 1394 
L 4031 4581 
L 4847 4581 
L 4847 0 
L 4263 0 
L 4263 3834 
L 2931 0 
L 2384 0 
L 1059 3900 
L 1059 0 
L 475 0 
z
" transform="scale(0.015625)"/>
       <path id="ArialMT-65" d="M 2694 1069 
L 3275 997 
Q 3138 488 2766 206 
Q 2394 -75 1816 -75 
Q 1088 -75 661 373 
Q 234 822 234 1631 
Q 234 2469 665 2931 
Q 1097 3394 1784 3394 
Q 2450 3394 2872 2941 
Q 3294 2488 3294 1666 
Q 3294 1616 3291 1516 
L 816 1516 
Q 847 969 1125 678 
Q 1403 388 1819 388 
Q 2128 388 2347 550 
Q 2566 713 2694 1069 
z
M 847 1978 
L 2700 1978 
Q 2663 2397 2488 2606 
Q 2219 2931 1791 2931 
Q 1403 2931 1139 2672 
Q 875 2413 847 1978 
z
" transform="scale(0.015625)"/>
       <path id="ArialMT-61" d="M 2588 409 
Q 2275 144 1986 34 
Q 1697 -75 1366 -75 
Q 819 -75 525 192 
Q 231 459 231 875 
Q 231 1119 342 1320 
Q 453 1522 633 1644 
Q 813 1766 1038 1828 
Q 1203 1872 1538 1913 
Q 2219 1994 2541 2106 
Q 2544 2222 2544 2253 
Q 2544 2597 2384 2738 
Q 2169 2928 1744 2928 
Q 1347 2928 1158 2789 
Q 969 2650 878 2297 
L 328 2372 
Q 403 2725 575 2942 
Q 747 3159 1072 3276 
Q 1397 3394 1825 3394 
Q 2250 3394 2515 3294 
Q 2781 3194 2906 3042 
Q 3031 2891 3081 2659 
Q 3109 2516 3109 2141 
L 3109 1391 
Q 3109 606 3145 398 
Q 3181 191 3288 0 
L 2700 0 
Q 2613 175 2588 409 
z
M 2541 1666 
Q 2234 1541 1622 1453 
Q 1275 1403 1131 1340 
Q 988 1278 909 1158 
Q 831 1038 831 891 
Q 831 666 1001 516 
Q 1172 366 1500 366 
Q 1825 366 2078 508 
Q 2331 650 2450 897 
Q 2541 1088 2541 1459 
L 2541 1666 
z
" transform="scale(0.015625)"/>
       <path id="ArialMT-6e" d="M 422 0 
L 422 3319 
L 928 3319 
L 928 2847 
Q 1294 3394 1984 3394 
Q 2284 3394 2536 3286 
Q 2788 3178 2913 3003 
Q 3038 2828 3088 2588 
Q 3119 2431 3119 2041 
L 3119 0 
L 2556 0 
L 2556 2019 
Q 2556 2363 2490 2533 
Q 2425 2703 2258 2804 
Q 2091 2906 1866 2906 
Q 1506 2906 1245 2678 
Q 984 2450 984 1813 
L 984 0 
L 422 0 
z
" transform="scale(0.015625)"/>
       <path id="ArialMT-20" transform="scale(0.015625)"/>
       <path id="ArialMT-53" d="M 288 1472 
L 859 1522 
Q 900 1178 1048 958 
Q 1197 738 1509 602 
Q 1822 466 2213 466 
Q 2559 466 2825 569 
Q 3091 672 3220 851 
Q 3350 1031 3350 1244 
Q 3350 1459 3225 1620 
Q 3100 1781 2813 1891 
Q 2628 1963 1997 2114 
Q 1366 2266 1113 2400 
Q 784 2572 623 2826 
Q 463 3081 463 3397 
Q 463 3744 659 4045 
Q 856 4347 1234 4503 
Q 1613 4659 2075 4659 
Q 2584 4659 2973 4495 
Q 3363 4331 3572 4012 
Q 3781 3694 3797 3291 
L 3216 3247 
Q 3169 3681 2898 3903 
Q 2628 4125 2100 4125 
Q 1550 4125 1298 3923 
Q 1047 3722 1047 3438 
Q 1047 3191 1225 3031 
Q 1400 2872 2139 2705 
Q 2878 2538 3153 2413 
Q 3553 2228 3743 1945 
Q 3934 1663 3934 1294 
Q 3934 928 3725 604 
Q 3516 281 3123 101 
Q 2731 -78 2241 -78 
Q 1619 -78 1198 103 
Q 778 284 539 648 
Q 300 1013 288 1472 
z
" transform="scale(0.015625)"/>
       <path id="ArialMT-71" d="M 2538 -1272 
L 2538 353 
Q 2406 169 2170 47 
Q 1934 -75 1669 -75 
Q 1078 -75 651 397 
Q 225 869 225 1691 
Q 225 2191 398 2587 
Q 572 2984 901 3189 
Q 1231 3394 1625 3394 
Q 2241 3394 2594 2875 
L 2594 3319 
L 3100 3319 
L 3100 -1272 
L 2538 -1272 
z
M 803 1669 
Q 803 1028 1072 708 
Q 1341 388 1716 388 
Q 2075 388 2334 692 
Q 2594 997 2594 1619 
Q 2594 2281 2320 2615 
Q 2047 2950 1678 2950 
Q 1313 2950 1058 2639 
Q 803 2328 803 1669 
z
" transform="scale(0.015625)"/>
       <path id="ArialMT-75" d="M 2597 0 
L 2597 488 
Q 2209 -75 1544 -75 
Q 1250 -75 995 37 
Q 741 150 617 320 
Q 494 491 444 738 
Q 409 903 409 1263 
L 409 3319 
L 972 3319 
L 972 1478 
Q 972 1038 1006 884 
Q 1059 663 1231 536 
Q 1403 409 1656 409 
Q 1909 409 2131 539 
Q 2353 669 2445 892 
Q 2538 1116 2538 1541 
L 2538 3319 
L 3100 3319 
L 3100 0 
L 2597 0 
z
" transform="scale(0.015625)"/>
       <path id="ArialMT-72" d="M 416 0 
L 416 3319 
L 922 3319 
L 922 2816 
Q 1116 3169 1280 3281 
Q 1444 3394 1641 3394 
Q 1925 3394 2219 3213 
L 2025 2691 
Q 1819 2813 1613 2813 
Q 1428 2813 1281 2702 
Q 1134 2591 1072 2394 
Q 978 2094 978 1738 
L 978 0 
L 416 0 
z
" transform="scale(0.015625)"/>
       <path id="ArialMT-64" d="M 2575 0 
L 2575 419 
Q 2259 -75 1647 -75 
Q 1250 -75 917 144 
Q 584 363 401 755 
Q 219 1147 219 1656 
Q 219 2153 384 2558 
Q 550 2963 881 3178 
Q 1213 3394 1622 3394 
Q 1922 3394 2156 3267 
Q 2391 3141 2538 2938 
L 2538 4581 
L 3097 4581 
L 3097 0 
L 2575 0 
z
M 797 1656 
Q 797 1019 1065 703 
Q 1334 388 1700 388 
Q 2069 388 2326 689 
Q 2584 991 2584 1609 
Q 2584 2291 2321 2609 
Q 2059 2928 1675 2928 
Q 1300 2928 1048 2622 
Q 797 2316 797 1656 
z
" transform="scale(0.015625)"/>
      </defs>
      <use xlink:href="#ArialMT-4d"/>
      <use xlink:href="#ArialMT-65" x="83.300781"/>
      <use xlink:href="#ArialMT-61" x="138.916016"/>
      <use xlink:href="#ArialMT-6e" x="194.53125"/>
      <use xlink:href="#ArialMT-20" x="250.146484"/>
      <use xlink:href="#ArialMT-53" x="277.929688"/>
      <use xlink:href="#ArialMT-71" x="344.628906"/>
      <use xlink:href="#ArialMT-75" x="400.244141"/>
      <use xlink:href="#ArialMT-61" x="455.859375"/>
      <use xlink:href="#ArialMT-72" x="511.474609"/>
      <use xlink:href="#ArialMT-65" x="544.775391"/>
      <use xlink:href="#ArialMT-64" x="600.390625"/>
      <use xlink:href="#ArialMT-20" x="656.005859"/>
      <use xlink:href="#ArialMT-45" x="683.789062"/>
      <use xlink:href="#ArialMT-72" x="750.488281"/>
      <use xlink:href="#ArialMT-72" x="783.789062"/>
      <use xlink:href="#ArialMT-6f" x="817.089844"/>
      <use xlink:href="#ArialMT-72" x="872.705078"/>
     </g>
    </g>
   </g>
   <g id="line2d_33">
    <path d="M 115.363636 66.96 
L 116.682941 96.270886 
L 118.002246 118.115114 
L 119.321551 135.812976 
L 120.640856 150.79606 
L 121.960161 164.026243 
L 123.939118 181.551705 
L 125.918075 196.806642 
L 127.23738 205.845427 
L 129.216338 217.269161 
L 131.854947 229.543419 
L 133.833905 236.562525 
L 134.493557 238.740336 
L 137.132167 245.609093 
L 138.451472 248.669487 
L 139.770777 251.378483 
L 143.728691 257.831833 
L 145.047996 259.701078 
L 145.707649 260.362818 
L 146.367301 261.452203 
L 150.325216 266.21026 
L 150.984868 266.764624 
L 151.644521 267.743558 
L 152.304173 268.267554 
L 153.623478 269.676078 
L 157.581393 273.299324 
L 160.879655 275.907373 
L 161.539307 276.366373 
L 162.858612 277.426206 
L 164.837569 278.651108 
L 165.497222 279.011953 
L 166.156874 279.612335 
L 173.413051 283.630459 
L 174.732356 284.232731 
L 175.392009 284.669117 
L 176.051661 284.880542 
L 176.711313 285.302462 
L 178.690271 286.213074 
L 180.009576 286.915334 
L 180.669228 286.958195 
L 181.988533 287.768282 
L 182.648185 287.911723 
L 183.307838 288.432363 
L 185.286795 289.089282 
L 186.6061 289.843623 
L 192.542972 292.365557 
L 193.202624 292.479531 
L 193.862277 292.914056 
L 195.181582 293.395444 
L 204.416716 296.709419 
L 205.076368 296.894452 
L 205.736021 297.258651 
L 209.693935 298.341804 
L 210.353588 298.670249 
L 211.01324 298.7483 
L 211.672893 299.091465 
L 212.992198 299.261637 
L 213.65185 299.647351 
L 214.311503 299.701801 
L 216.950112 300.675632 
L 217.609765 300.898844 
L 218.269417 300.915452 
L 218.92907 301.211498 
L 219.588722 301.345465 
L 222.227332 302.269104 
L 222.886984 302.369882 
L 223.546637 302.662347 
L 227.504551 303.668154 
L 228.164204 303.658313 
L 228.823856 304.044113 
L 230.143161 304.353383 
L 231.462466 304.641083 
L 233.441423 305.262219 
L 243.33621 307.807979 
L 243.995862 308.091055 
L 244.655515 308.120493 
L 246.634472 308.644855 
L 247.294125 308.698656 
L 248.613429 309.14147 
L 251.252039 309.926321 
L 251.911692 309.857237 
L 252.571344 310.286771 
L 253.230997 310.321679 
L 255.209954 311.012012 
L 255.869606 311.046808 
L 259.167869 311.879228 
L 259.827521 311.964779 
L 261.806478 312.659144 
L 264.445088 313.101536 
L 265.104741 313.439512 
L 265.764393 313.525204 
L 266.424045 313.790938 
L 267.083698 313.820517 
L 269.722308 314.51773 
L 271.041612 314.741337 
L 271.701265 314.986289 
L 272.360917 315.073617 
L 273.02057 315.308052 
L 273.680222 315.402372 
L 274.339875 315.652823 
L 275.65918 315.732058 
L 276.318832 316.125837 
L 276.978484 316.150736 
L 278.297789 316.456454 
L 278.957442 316.40457 
L 279.617094 316.757716 
L 284.894314 317.954646 
L 287.532924 318.478388 
L 288.192576 318.6617 
L 289.511881 318.810414 
L 290.831186 319.317829 
L 292.150491 319.393286 
L 294.129448 319.946861 
L 294.7891 320.096308 
L 295.448753 320.039151 
L 296.768058 320.465921 
L 297.42771 320.492201 
L 298.087363 320.761798 
L 300.725972 321.160709 
L 301.385625 321.534017 
L 302.70493 321.725704 
L 306.662844 322.531167 
L 307.322497 322.751277 
L 307.982149 322.817147 
L 308.641802 323.008693 
L 309.301454 323.068584 
L 310.620759 323.419419 
L 311.280411 323.572108 
L 311.940064 323.576535 
L 313.259369 323.931035 
L 313.919021 323.850249 
L 315.238326 324.289201 
L 317.217283 324.686307 
L 317.876936 324.70988 
L 319.196241 325.132674 
L 319.855893 325.157206 
L 321.83485 325.563054 
L 325.133113 326.287054 
L 325.792765 326.272673 
L 331.729637 327.658936 
L 332.38929 327.517243 
L 333.048942 327.906172 
L 333.708594 327.948596 
L 335.027899 328.237705 
L 335.687552 328.296088 
L 336.347204 328.242372 
L 338.326161 328.865087 
L 338.985814 328.853963 
L 340.964771 329.336846 
L 341.624424 329.44387 
L 342.943729 329.465342 
L 344.263033 329.902983 
L 345.582338 330.123445 
L 346.241991 330.295634 
L 346.901643 330.193164 
L 347.561296 330.488181 
L 348.880601 330.707064 
L 350.199905 330.875404 
L 351.51921 331.253547 
L 352.178863 331.242155 
L 353.498168 331.577988 
L 354.15782 331.599672 
L 355.477125 331.943302 
L 356.79643 332.01075 
L 358.115735 332.329044 
L 359.43504 332.521352 
L 360.094692 332.809432 
L 362.733302 333.062393 
L 363.392954 333.363246 
L 366.691216 333.892162 
L 367.350869 333.833173 
L 368.010521 334.148309 
L 368.670174 334.155908 
L 369.329826 334.411152 
L 369.989479 334.378034 
L 373.287741 335.067521 
L 373.947393 335.019303 
L 374.607046 335.333734 
L 375.266698 335.327686 
L 375.926351 335.578306 
L 376.586003 335.617289 
L 377.905308 335.96082 
L 379.224613 336.06336 
L 382.522875 336.637801 
L 383.182527 336.84033 
L 383.84218 336.814487 
L 384.501832 337.110265 
L 385.161485 336.945535 
L 386.48079 337.270258 
L 388.459747 337.688414 
L 389.119399 337.922708 
L 390.438704 338.104723 
L 391.098357 338.072874 
L 393.077314 338.43001 
L 393.736967 338.621739 
L 394.396619 338.531056 
L 395.056271 338.867932 
L 395.715924 338.909961 
L 396.375576 339.159974 
L 397.035229 339.277854 
L 397.694881 339.262627 
L 398.354534 339.500587 
L 399.673839 339.722643 
L 401.652796 340.051877 
L 402.312448 339.956006 
L 402.972101 340.303696 
L 403.631753 340.430091 
L 404.291406 340.334572 
L 404.951058 340.543629 
L 406.270363 340.738671 
L 406.930015 340.91086 
L 408.24932 340.969031 
L 409.568625 341.263456 
L 410.88793 341.382478 
L 411.547582 341.702718 
L 412.866887 341.885903 
L 414.186192 341.962784 
L 415.505497 342.332129 
L 416.16515 342.354152 
L 418.803759 342.912111 
L 419.463412 342.844536 
L 420.123064 343.131798 
L 420.782717 343.062559 
L 421.442369 343.27108 
L 422.761674 343.437418 
L 423.421326 343.624847 
L 424.740631 343.682257 
L 425.400284 343.968589 
L 430.677503 344.631302 
L 431.337156 344.89619 
L 437.93368 345.847999 
L 438.593333 346.00403 
L 439.912637 346.172454 
L 440.57229 346.217627 
L 441.231942 346.428756 
L 441.891595 346.444236 
L 442.551247 346.645257 
L 443.870552 346.617398 
L 445.849509 346.97593 
L 446.509162 347.272201 
L 449.147772 347.513587 
L 450.467076 347.790952 
L 451.786381 347.876757 
L 452.446034 348.004125 
L 453.105686 347.994101 
L 453.765339 348.333952 
L 455.744296 348.553921 
L 457.063601 348.83398 
L 457.723253 348.716636 
L 458.382906 348.966565 
L 459.702211 349.051157 
L 460.361863 349.208852 
L 461.021516 349.233849 
L 461.681168 349.488727 
L 462.34082 349.446262 
L 463.000473 349.661014 
L 464.319778 349.769377 
L 466.298735 350.118463 
L 474.874217 351.21666 
L 475.533869 351.375327 
L 476.193522 351.345198 
L 476.853174 351.486538 
L 477.512827 351.468816 
L 478.832131 351.896235 
L 482.130394 352.028087 
L 482.790046 352.359746 
L 483.449699 352.312699 
L 484.769003 352.701882 
L 486.088308 352.785685 
L 490.705875 353.327233 
L 491.365528 353.568393 
L 492.684833 353.762223 
L 493.344485 353.867555 
L 494.004138 353.826302 
L 495.323442 354.025842 
L 495.983095 353.99254 
L 496.642747 354.185736 
L 497.962052 354.419804 
L 498.621705 354.518552 
L 499.281357 354.479907 
L 499.94101 354.655113 
L 501.260314 354.727467 
L 501.919967 354.972391 
L 502.579619 354.914883 
L 503.898924 355.220657 
L 504.558577 355.35007 
L 505.218229 355.340356 
L 506.537534 355.619638 
L 507.197186 355.490902 
L 507.856839 355.794336 
L 509.176144 355.758173 
L 509.835796 356.033268 
L 510.495449 356.044956 
L 512.474406 356.382862 
L 513.134058 356.08996 
L 513.793711 356.575888 
L 514.453363 356.545731 
L 515.113016 356.632537 
L 515.772668 356.86958 
L 517.091973 356.878716 
L 517.751625 357.100955 
L 521.049888 357.476025 
L 521.70954 357.309842 
L 523.028845 357.676679 
L 523.688497 357.700026 
L 525.007802 358.002741 
L 525.667455 357.916104 
L 528.965717 358.601277 
L 529.625369 358.465534 
L 530.944674 358.740446 
L 532.923632 358.944441 
L 534.242937 359.076941 
L 534.902589 359.070174 
L 536.221894 359.460654 
L 536.881546 359.490275 
L 537.541199 359.299942 
L 538.860504 359.682428 
L 539.520156 359.868221 
L 544.137723 360.351936 
L 544.797376 360.477965 
L 545.457028 360.427309 
L 546.776333 360.797049 
L 548.095638 360.885787 
L 548.75529 360.959072 
L 549.414943 361.154256 
L 550.074595 361.096282 
L 552.053552 361.47279 
L 552.713205 361.312543 
L 553.372857 361.613157 
L 554.03251 361.608716 
L 554.692162 361.77597 
L 557.330772 361.885122 
L 557.990424 362.112493 
L 558.650077 362.063444 
L 559.969382 362.343107 
L 560.629034 362.340781 
L 561.288687 362.63725 
L 561.948339 362.584633 
L 562.607991 362.78423 
L 563.927296 362.809537 
L 564.586949 363.040884 
L 566.565906 363.203838 
L 569.204516 363.481711 
L 569.864168 363.678064 
L 571.183473 363.638306 
L 571.843126 363.895186 
L 579.099303 364.638234 
L 581.07826 365.029489 
L 581.737912 364.972107 
L 582.397565 365.151218 
L 583.057217 364.956528 
L 583.71687 365.230171 
L 584.376522 365.218765 
L 585.695827 365.430952 
L 587.015132 365.548832 
L 587.674784 365.644703 
L 588.334437 365.576042 
L 590.973046 366.049465 
L 591.632699 365.949801 
L 593.611656 366.346879 
L 594.271309 366.289088 
L 594.930961 366.546772 
L 595.590614 366.536987 
L 597.569571 366.766177 
L 598.888876 366.747228 
L 599.548528 367.05929 
L 601.527486 367.044444 
L 602.84679 367.281107 
L 603.506443 367.043246 
L 604.166095 367.445386 
L 606.804705 367.493307 
L 607.464357 367.829154 
L 608.783662 367.686672 
L 610.102967 367.890569 
L 610.76262 368.100302 
L 615.380187 368.639947 
L 616.039839 368.600315 
L 617.359144 368.87496 
L 619.338101 368.906795 
L 619.997754 369.200007 
L 621.976711 369.170935 
L 622.636364 369.36 
L 622.636364 369.36 
" clip-path="url(#pb39b55ddf3)" style="fill: none; stroke: #1f77b4; stroke-width: 1.5; stroke-linecap: round"/>
   </g>
   <g id="line2d_34">
    <path d="M 115.363636 95.590394 
L 116.682941 121.767206 
L 118.002246 142.07306 
L 119.981203 166.507037 
L 121.300508 180.288285 
L 123.279466 198.458568 
L 125.258423 214.476701 
L 127.897033 232.272971 
L 130.535643 246.188722 
L 131.854947 251.544482 
L 133.174252 256.859497 
L 134.493557 260.936977 
L 135.15321 263.22191 
L 136.472514 266.62513 
L 139.111124 272.856566 
L 141.090082 276.488553 
L 141.749734 277.870318 
L 142.409386 278.778336 
L 143.728691 281.022834 
L 145.707649 284.130233 
L 146.367301 284.799051 
L 147.686606 286.434453 
L 149.005911 288.663893 
L 149.665563 289.592975 
L 150.325216 290.207174 
L 150.984868 291.257167 
L 151.644521 292.046135 
L 152.963826 293.275548 
L 153.623478 294.083831 
L 154.28313 294.458549 
L 154.942783 295.418845 
L 155.602435 295.587664 
L 156.262088 296.467625 
L 156.92174 296.960265 
L 157.581393 297.1612 
L 158.241045 298.246666 
L 158.900697 298.725009 
L 159.56035 298.903894 
L 160.220002 299.354068 
L 160.879655 300.150198 
L 162.858612 301.518401 
L 163.518265 301.645628 
L 164.177917 302.128934 
L 164.837569 303.061653 
L 165.497222 303.097831 
L 166.816527 303.645173 
L 167.476179 303.836381 
L 168.135832 304.274402 
L 169.455137 305.330203 
L 170.114789 305.591341 
L 170.774441 305.50703 
L 171.434094 305.740591 
L 172.093746 306.376023 
L 172.753399 306.559335 
L 173.413051 307.139725 
L 174.732356 307.43439 
L 176.051661 308.023804 
L 176.711313 307.983763 
L 177.370966 308.627908 
L 178.690271 308.782092 
L 179.349923 309.436501 
L 180.009576 309.677337 
L 180.669228 310.428745 
L 181.32888 309.992501 
L 181.988533 310.342292 
L 182.648185 310.482885 
L 183.307838 310.831463 
L 183.96749 310.781187 
L 184.627143 310.998816 
L 185.286795 311.412135 
L 185.946448 311.671017 
L 186.6061 311.726369 
L 187.265752 312.050979 
L 187.925405 311.722196 
L 189.24471 312.824495 
L 189.904362 312.424879 
L 190.564015 312.828809 
L 191.223667 313.075651 
L 191.88332 312.947859 
L 192.542972 313.107739 
L 193.202624 313.038966 
L 193.862277 313.739985 
L 195.841234 314.274639 
L 196.500887 314.904629 
L 197.160539 314.900456 
L 197.820192 315.277965 
L 198.479844 315.093609 
L 199.139496 315.075478 
L 199.799149 315.656376 
L 200.458801 315.422787 
L 201.118454 315.970102 
L 202.437759 316.017079 
L 203.097411 315.886637 
L 203.757063 316.127247 
L 204.416716 316.597385 
L 205.076368 316.627556 
L 205.736021 316.893826 
L 206.395673 316.906036 
L 207.714978 317.248354 
L 208.374631 317.000187 
L 209.034283 317.292793 
L 209.693935 317.710625 
L 210.353588 317.891089 
L 211.01324 317.901917 
L 211.672893 318.041467 
L 212.332545 318.02029 
L 212.992198 318.668693 
L 213.65185 318.560133 
L 214.311503 319.011491 
L 214.971155 318.218942 
L 215.630807 318.951571 
L 216.29046 318.913364 
L 216.950112 319.243416 
L 217.609765 319.194747 
L 218.92907 319.507514 
L 220.248375 319.849748 
L 220.908027 319.721562 
L 221.567679 319.914687 
L 222.227332 319.748322 
L 223.546637 320.353413 
L 224.206289 320.375266 
L 224.865942 320.548315 
L 225.525594 320.538981 
L 226.185246 320.724719 
L 226.844899 320.636799 
L 227.504551 320.692855 
L 228.164204 320.985405 
L 228.823856 320.828175 
L 229.483509 321.078062 
L 230.143161 321.517549 
L 230.802814 321.592245 
L 231.462466 321.40005 
L 232.122118 321.800343 
L 232.781771 321.989266 
L 233.441423 321.930334 
L 235.420381 322.009371 
L 236.080033 322.498909 
L 236.739686 322.254746 
L 237.399338 322.4867 
L 238.05899 322.411102 
L 238.718643 322.747358 
L 239.378295 322.632707 
L 240.037948 323.001559 
L 240.6976 322.724631 
L 241.357253 323.090381 
L 242.016905 323.061479 
L 242.676558 323.617535 
L 243.33621 323.135074 
L 243.995862 323.316131 
L 244.655515 323.297859 
L 245.315167 323.476631 
L 245.97482 323.382226 
L 246.634472 323.585333 
L 247.294125 323.643476 
L 247.953777 323.917951 
L 248.613429 324.050311 
L 249.273082 323.935039 
L 249.932734 324.18267 
L 250.592387 324.565875 
L 251.252039 324.085755 
L 251.911692 324.659632 
L 252.571344 324.275468 
L 253.230997 324.465238 
L 253.890649 324.868209 
L 254.550301 324.805357 
L 255.869606 325.376301 
L 256.529259 325.202548 
L 257.188911 325.466308 
L 257.848564 325.134338 
L 258.508216 325.744505 
L 261.146826 326.145277 
L 262.466131 325.893191 
L 263.125783 326.61471 
L 263.785436 326.480574 
L 264.445088 326.17291 
L 265.104741 326.861749 
L 266.424045 326.720479 
L 267.083698 326.993868 
L 268.403003 326.963655 
L 269.722308 326.894994 
L 270.38196 327.277902 
L 271.041612 327.019105 
L 271.701265 327.534951 
L 272.360917 327.279397 
L 273.02057 327.485324 
L 273.680222 327.171682 
L 274.999527 327.811837 
L 275.65918 327.600017 
L 276.978484 327.853443 
L 277.638137 327.602287 
L 279.617094 328.105924 
L 280.276747 328.12273 
L 280.936399 328.594348 
L 281.596052 328.280692 
L 282.255704 328.810369 
L 282.915356 328.615567 
L 283.575009 328.833224 
L 284.234661 328.896809 
L 284.894314 329.086268 
L 286.213619 328.74567 
L 286.873271 329.083576 
L 287.532924 329.247305 
L 288.192576 329.150376 
L 288.852228 329.325356 
L 289.511881 329.801077 
L 290.171533 329.338876 
L 291.490838 329.695378 
L 292.150491 329.281156 
L 293.469795 329.922876 
L 294.7891 330.122233 
L 295.448753 329.799921 
L 296.108405 330.325142 
L 296.768058 330.397385 
L 297.42771 330.598123 
L 298.087363 330.265617 
L 298.747015 330.647567 
L 299.406667 330.49014 
L 300.06632 330.700776 
L 300.725972 330.504 
L 303.364582 331.142886 
L 304.024235 331.049679 
L 304.683887 331.079695 
L 305.343539 330.910439 
L 306.003192 331.342285 
L 307.322497 331.638204 
L 307.982149 331.284466 
L 308.641802 331.498217 
L 309.301454 331.504026 
L 309.961107 331.916091 
L 310.620759 331.846175 
L 311.280411 332.359752 
L 311.940064 332.121821 
L 312.599716 332.260595 
L 313.259369 332.022058 
L 314.578674 332.272663 
L 315.238326 332.540075 
L 316.557631 332.334331 
L 317.217283 332.692934 
L 317.876936 332.822798 
L 318.536588 332.834373 
L 319.855893 332.681599 
L 320.515546 332.808192 
L 321.83485 332.931316 
L 322.494503 333.070147 
L 323.154155 332.986203 
L 323.813808 333.24335 
L 324.47346 332.92679 
L 325.133113 333.0834 
L 325.792765 333.968606 
L 326.452418 333.352574 
L 327.771722 333.614402 
L 328.431375 333.355802 
L 329.091027 333.692805 
L 329.75068 333.57274 
L 330.410332 333.75742 
L 331.069985 333.575377 
L 331.729637 333.904132 
L 332.38929 334.087811 
L 333.048942 333.827125 
L 333.708594 333.921192 
L 335.027899 333.961063 
L 335.687552 334.282727 
L 336.347204 334.286674 
L 337.006857 334.110327 
L 337.666509 334.12224 
L 338.326161 334.379769 
L 339.645466 334.674856 
L 340.305119 334.166468 
L 340.964771 334.473088 
L 341.624424 334.652002 
L 342.284076 334.665382 
L 342.943729 334.215236 
L 343.603381 334.639073 
L 344.263033 334.779074 
L 345.582338 334.518275 
L 346.241991 334.926872 
L 346.901643 334.998761 
L 347.561296 335.239357 
L 349.540253 335.351668 
L 350.199905 334.81958 
L 350.859558 335.382023 
L 351.51921 335.321623 
L 352.178863 334.949937 
L 352.838515 335.746279 
L 353.498168 335.477175 
L 354.817473 335.585398 
L 355.477125 335.125383 
L 356.136777 335.247069 
L 357.456082 335.946848 
L 358.115735 335.538209 
L 358.775387 335.762958 
L 359.43504 335.76981 
L 360.094692 336.100976 
L 360.754344 335.655511 
L 361.413997 335.78835 
L 362.073649 336.090515 
L 362.733302 336.195649 
L 363.392954 336.010081 
L 364.052607 336.483321 
L 364.712259 336.178167 
L 365.371912 336.481135 
L 366.031564 336.619021 
L 367.350869 336.116456 
L 368.010521 336.708873 
L 368.670174 336.419242 
L 369.329826 336.937132 
L 369.989479 336.747179 
L 370.649131 336.885446 
L 371.308784 336.897148 
L 372.628088 336.650913 
L 373.287741 337.149826 
L 373.947393 337.253058 
L 374.607046 336.954474 
L 375.266698 336.894187 
L 376.586003 337.341316 
L 377.905308 337.073411 
L 381.20357 337.52601 
L 381.863223 337.341119 
L 382.522875 337.390239 
L 383.182527 337.777786 
L 384.501832 337.663628 
L 385.161485 337.803587 
L 385.821137 337.772302 
L 386.48079 337.95192 
L 387.140442 338.013772 
L 387.800095 337.822254 
L 388.459747 338.013659 
L 393.736967 338.230399 
L 394.396619 338.528871 
L 395.056271 338.704273 
L 396.375576 338.239267 
L 397.035229 338.703456 
L 397.694881 338.496641 
L 398.354534 338.760316 
L 399.673839 338.930277 
L 400.993143 338.691401 
L 401.652796 339.021073 
L 402.312448 339.060888 
L 402.972101 338.910073 
L 403.631753 338.993439 
L 404.291406 339.231624 
L 404.951058 339.211914 
L 406.270363 339.555219 
L 407.589668 339.232865 
L 408.24932 339.692499 
L 408.908973 339.675524 
L 409.568625 339.44109 
L 410.228278 339.631085 
L 410.88793 339.302076 
L 411.547582 339.827566 
L 412.866887 339.835066 
L 413.52654 339.686747 
L 414.186192 340.164047 
L 414.845845 339.818557 
L 415.505497 340.019549 
L 416.16515 340.065609 
L 416.824802 340.42283 
L 417.484454 340.05598 
L 418.144107 339.948984 
L 418.803759 340.311182 
L 419.463412 340.335319 
L 420.782717 339.966114 
L 421.442369 340.242507 
L 422.761674 340.436281 
L 423.421326 340.596203 
L 424.080979 341.023918 
L 424.740631 340.586686 
L 426.059936 340.584543 
L 426.719589 340.775441 
L 427.379241 340.613347 
L 428.038893 340.729479 
L 428.698546 341.048887 
L 429.358198 340.463407 
L 430.017851 341.098571 
L 431.337156 340.774242 
L 431.996808 341.196106 
L 434.635418 341.046236 
L 435.954723 341.2537 
L 436.614375 341.654472 
L 437.93368 341.557768 
L 438.593333 341.641162 
L 439.252985 341.465548 
L 439.912637 341.974049 
L 440.57229 341.750865 
L 441.231942 342.173603 
L 441.891595 341.922066 
L 442.551247 342.072684 
L 443.2109 341.759916 
L 443.870552 342.336669 
L 444.530205 342.324643 
L 445.189857 342.594127 
L 445.849509 341.967746 
L 446.509162 342.380009 
L 447.828467 342.567029 
L 448.488119 342.564407 
L 449.147772 342.201067 
L 449.807424 342.573811 
L 450.467076 342.504459 
L 451.126729 342.271378 
L 451.786381 342.978474 
L 452.446034 342.768233 
L 453.105686 342.422009 
L 453.765339 342.467266 
L 454.424991 342.980969 
L 455.084644 343.173601 
L 455.744296 342.897138 
L 456.403948 343.290057 
L 457.063601 343.206959 
L 457.723253 342.899436 
L 458.382906 343.232647 
L 459.042558 342.998607 
L 459.702211 343.157035 
L 460.361863 343.676166 
L 461.021516 343.227867 
L 461.681168 343.280569 
L 463.000473 343.887874 
L 463.660125 343.488173 
L 464.319778 343.318001 
L 465.639083 343.868178 
L 466.298735 343.618488 
L 466.958388 343.761027 
L 467.61804 343.716094 
L 468.277692 344.186824 
L 468.937345 343.709002 
L 469.596997 343.712767 
L 470.916302 344.032316 
L 471.575955 343.764044 
L 472.895259 344.06346 
L 473.554912 343.914591 
L 474.214564 344.225173 
L 474.874217 344.294384 
L 475.533869 344.127623 
L 476.193522 344.369305 
L 476.853174 343.731448 
L 477.512827 344.474637 
L 478.172479 344.639508 
L 478.832131 344.426193 
L 480.151436 345.010475 
L 480.811089 344.423444 
L 481.470741 344.580758 
L 482.130394 344.478965 
L 482.790046 345.128975 
L 483.449699 344.936625 
L 484.769003 345.283089 
L 485.428656 344.850256 
L 486.088308 344.975524 
L 486.747961 344.733589 
L 487.407613 345.213765 
L 488.067266 345.449116 
L 488.726918 345.549669 
L 489.386571 345.260968 
L 490.046223 345.455489 
L 490.705875 345.515493 
L 491.365528 345.125873 
L 492.02518 345.388957 
L 493.344485 345.56436 
L 494.004138 345.899911 
L 494.66379 345.765451 
L 495.323442 345.750238 
L 495.983095 345.970686 
L 496.642747 346.02422 
L 497.3024 345.667365 
L 497.962052 346.0634 
L 498.621705 345.853032 
L 499.281357 346.121332 
L 499.94101 346.027067 
L 500.600662 346.411259 
L 501.260314 346.379354 
L 501.919967 346.482077 
L 502.579619 345.93558 
L 503.239272 346.84247 
L 503.898924 345.914954 
L 504.558577 346.389152 
L 505.218229 346.570759 
L 505.877882 346.368173 
L 506.537534 346.308465 
L 507.197186 346.553897 
L 507.856839 346.525995 
L 508.516491 347.115507 
L 509.176144 346.578076 
L 509.835796 347.038091 
L 510.495449 347.146891 
L 511.155101 346.998445 
L 511.814754 346.635585 
L 512.474406 346.757511 
L 513.134058 347.383934 
L 513.793711 347.12838 
L 514.453363 347.077469 
L 515.113016 347.422833 
L 515.772668 347.137276 
L 516.432321 347.080895 
L 517.091973 347.354313 
L 517.751625 347.143423 
L 518.411278 347.584419 
L 519.07093 347.60544 
L 519.730583 347.826495 
L 520.390235 347.323817 
L 521.70954 347.929303 
L 522.369193 347.245935 
L 523.028845 347.672466 
L 523.688497 347.853748 
L 524.34815 347.465651 
L 525.007802 347.725971 
L 525.667455 347.312637 
L 526.327107 348.312409 
L 526.98676 347.929078 
L 527.646412 347.94773 
L 528.306065 347.848165 
L 528.965717 348.362939 
L 529.625369 348.560463 
L 530.285022 348.053274 
L 530.944674 348.451959 
L 531.604327 348.43559 
L 532.263979 348.891277 
L 532.923632 348.298536 
L 533.583284 348.687818 
L 534.242937 348.416261 
L 534.902589 348.012049 
L 535.562241 348.712476 
L 536.221894 348.677229 
L 536.881546 348.952311 
L 537.541199 348.571136 
L 538.200851 348.704863 
L 538.860504 348.551215 
L 540.179808 348.942329 
L 540.839461 349.223036 
L 541.499113 348.887527 
L 542.158766 349.130449 
L 543.478071 348.897368 
L 544.137723 349.732481 
L 544.797376 349.301397 
L 545.457028 349.005928 
L 546.11668 349.410845 
L 546.776333 350.014583 
L 547.435985 349.847203 
L 548.095638 349.440425 
L 548.75529 349.884959 
L 549.414943 349.536987 
L 550.074595 349.77809 
L 550.734248 349.717705 
L 552.053552 350.059403 
L 552.713205 349.555414 
L 554.03251 350.269066 
L 554.692162 350.105549 
L 555.351815 350.13885 
L 556.011467 349.898804 
L 556.67112 350.430032 
L 557.330772 350.5542 
L 557.990424 350.295149 
L 558.650077 350.357184 
L 559.309729 350.811531 
L 559.969382 350.55499 
L 562.607991 350.838699 
L 563.267644 350.970227 
L 563.927296 350.687081 
L 564.586949 351.003867 
L 565.246601 351.066508 
L 565.906254 350.849908 
L 566.565906 351.280203 
L 567.225559 350.910307 
L 567.885211 350.785096 
L 568.544863 351.116107 
L 569.864168 350.769672 
L 570.523821 351.208835 
L 571.183473 350.34465 
L 571.843126 351.438476 
L 573.162431 351.01516 
L 574.481735 351.272336 
L 575.80104 351.107972 
L 576.460693 351.45108 
L 577.120345 351.286138 
L 578.43965 351.371098 
L 579.099303 351.59672 
L 579.758955 351.220015 
L 581.07826 351.759815 
L 581.737912 351.533248 
L 582.397565 351.855588 
L 583.057217 351.975371 
L 583.71687 351.484254 
L 585.036174 352.064264 
L 585.695827 351.515201 
L 586.355479 351.798446 
L 587.015132 351.753612 
L 587.674784 352.162744 
L 588.334437 351.607083 
L 588.994089 351.993643 
L 589.653742 352.034191 
L 590.313394 351.822089 
L 590.973046 352.317196 
L 592.292351 351.988145 
L 592.952004 352.089487 
L 594.271309 352.632276 
L 594.930961 352.140694 
L 596.250266 352.431002 
L 596.909918 352.139636 
L 597.569571 352.75361 
L 598.229223 352.649223 
L 598.888876 352.416804 
L 599.548528 352.403326 
L 600.208181 352.791366 
L 600.867833 351.962245 
L 601.527486 352.39536 
L 603.506443 352.828432 
L 604.166095 352.775886 
L 604.825748 352.998816 
L 607.464357 352.586751 
L 608.12401 353.233561 
L 608.783662 353.021289 
L 609.443315 353.000733 
L 610.102967 352.401493 
L 611.422272 353.255075 
L 612.081925 353.199907 
L 612.741577 352.650097 
L 613.401229 353.185752 
L 614.060882 352.955307 
L 615.380187 353.250874 
L 616.039839 353.689332 
L 616.699492 352.91036 
L 617.359144 353.494346 
L 618.018797 353.148193 
L 618.678449 353.438515 
L 619.338101 353.546906 
L 619.997754 353.046456 
L 620.657406 353.231911 
L 621.317059 353.175883 
L 621.976711 352.984167 
L 622.636364 353.518018 
L 622.636364 353.518018 
" clip-path="url(#pb39b55ddf3)" style="fill: none; stroke: #ff7f0e; stroke-width: 1.5; stroke-linecap: round"/>
   </g>
   <g id="patch_3">
    <path d="M 90 384.48 
L 90 51.84 
" style="fill: none; stroke: #cccccc; stroke-linejoin: miter; stroke-linecap: square"/>
   </g>
   <g id="patch_4">
    <path d="M 648 384.48 
L 648 51.84 
" style="fill: none; stroke: #cccccc; stroke-linejoin: miter; stroke-linecap: square"/>
   </g>
   <g id="patch_5">
    <path d="M 90 384.48 
L 648 384.48 
" style="fill: none; stroke: #cccccc; stroke-linejoin: miter; stroke-linecap: square"/>
   </g>
   <g id="patch_6">
    <path d="M 90 51.84 
L 648 51.84 
" style="fill: none; stroke: #cccccc; stroke-linejoin: miter; stroke-linecap: square"/>
   </g>
   <g id="text_19">
    <!-- Model Training &amp; Validation Loss (Scaled Targets) -->
    <g style="fill: #262626" transform="translate(236.821875 45.84) scale(0.12 -0.12)">
     <defs>
      <path id="ArialMT-6c" d="M 409 0 
L 409 4581 
L 972 4581 
L 972 0 
L 409 0 
z
" transform="scale(0.015625)"/>
      <path id="ArialMT-54" d="M 1659 0 
L 1659 4041 
L 150 4041 
L 150 4581 
L 3781 4581 
L 3781 4041 
L 2266 4041 
L 2266 0 
L 1659 0 
z
" transform="scale(0.015625)"/>
      <path id="ArialMT-69" d="M 425 3934 
L 425 4581 
L 988 4581 
L 988 3934 
L 425 3934 
z
M 425 0 
L 425 3319 
L 988 3319 
L 988 0 
L 425 0 
z
" transform="scale(0.015625)"/>
      <path id="ArialMT-67" d="M 319 -275 
L 866 -356 
Q 900 -609 1056 -725 
Q 1266 -881 1628 -881 
Q 2019 -881 2231 -725 
Q 2444 -569 2519 -288 
Q 2563 -116 2559 434 
Q 2191 0 1641 0 
Q 956 0 581 494 
Q 206 988 206 1678 
Q 206 2153 378 2554 
Q 550 2956 876 3175 
Q 1203 3394 1644 3394 
Q 2231 3394 2613 2919 
L 2613 3319 
L 3131 3319 
L 3131 450 
Q 3131 -325 2973 -648 
Q 2816 -972 2473 -1159 
Q 2131 -1347 1631 -1347 
Q 1038 -1347 672 -1080 
Q 306 -813 319 -275 
z
M 784 1719 
Q 784 1066 1043 766 
Q 1303 466 1694 466 
Q 2081 466 2343 764 
Q 2606 1063 2606 1700 
Q 2606 2309 2336 2618 
Q 2066 2928 1684 2928 
Q 1309 2928 1046 2623 
Q 784 2319 784 1719 
z
" transform="scale(0.015625)"/>
      <path id="ArialMT-26" d="M 3041 541 
Q 2763 231 2434 76 
Q 2106 -78 1725 -78 
Q 1022 -78 609 397 
Q 275 784 275 1263 
Q 275 1688 548 2030 
Q 822 2372 1366 2631 
Q 1056 2988 953 3209 
Q 850 3431 850 3638 
Q 850 4050 1173 4354 
Q 1497 4659 1988 4659 
Q 2456 4659 2754 4371 
Q 3053 4084 3053 3681 
Q 3053 3028 2188 2566 
L 3009 1519 
Q 3150 1794 3228 2156 
L 3813 2031 
Q 3663 1431 3406 1044 
Q 3722 625 4122 341 
L 3744 -106 
Q 3403 113 3041 541 
z
M 1897 2928 
Q 2263 3144 2370 3306 
Q 2478 3469 2478 3666 
Q 2478 3900 2329 4048 
Q 2181 4197 1959 4197 
Q 1731 4197 1579 4050 
Q 1428 3903 1428 3691 
Q 1428 3584 1483 3467 
Q 1538 3350 1647 3219 
L 1897 2928 
z
M 2688 984 
L 1656 2263 
Q 1200 1991 1040 1758 
Q 881 1525 881 1297 
Q 881 1019 1103 719 
Q 1325 419 1731 419 
Q 1984 419 2254 576 
Q 2525 734 2688 984 
z
" transform="scale(0.015625)"/>
      <path id="ArialMT-56" d="M 1803 0 
L 28 4581 
L 684 4581 
L 1875 1253 
Q 2019 853 2116 503 
Q 2222 878 2363 1253 
L 3600 4581 
L 4219 4581 
L 2425 0 
L 1803 0 
z
" transform="scale(0.015625)"/>
      <path id="ArialMT-74" d="M 1650 503 
L 1731 6 
Q 1494 -44 1306 -44 
Q 1000 -44 831 53 
Q 663 150 594 308 
Q 525 466 525 972 
L 525 2881 
L 113 2881 
L 113 3319 
L 525 3319 
L 525 4141 
L 1084 4478 
L 1084 3319 
L 1650 3319 
L 1650 2881 
L 1084 2881 
L 1084 941 
Q 1084 700 1114 631 
Q 1144 563 1211 522 
Q 1278 481 1403 481 
Q 1497 481 1650 503 
z
" transform="scale(0.015625)"/>
      <path id="ArialMT-4c" d="M 469 0 
L 469 4581 
L 1075 4581 
L 1075 541 
L 3331 541 
L 3331 0 
L 469 0 
z
" transform="scale(0.015625)"/>
      <path id="ArialMT-73" d="M 197 991 
L 753 1078 
Q 800 744 1014 566 
Q 1228 388 1613 388 
Q 2000 388 2187 545 
Q 2375 703 2375 916 
Q 2375 1106 2209 1216 
Q 2094 1291 1634 1406 
Q 1016 1563 777 1677 
Q 538 1791 414 1992 
Q 291 2194 291 2438 
Q 291 2659 392 2848 
Q 494 3038 669 3163 
Q 800 3259 1026 3326 
Q 1253 3394 1513 3394 
Q 1903 3394 2198 3281 
Q 2494 3169 2634 2976 
Q 2775 2784 2828 2463 
L 2278 2388 
Q 2241 2644 2061 2787 
Q 1881 2931 1553 2931 
Q 1166 2931 1000 2803 
Q 834 2675 834 2503 
Q 834 2394 903 2306 
Q 972 2216 1119 2156 
Q 1203 2125 1616 2013 
Q 2213 1853 2448 1751 
Q 2684 1650 2818 1456 
Q 2953 1263 2953 975 
Q 2953 694 2789 445 
Q 2625 197 2315 61 
Q 2006 -75 1616 -75 
Q 969 -75 630 194 
Q 291 463 197 991 
z
" transform="scale(0.015625)"/>
      <path id="ArialMT-28" d="M 1497 -1347 
Q 1031 -759 709 28 
Q 388 816 388 1659 
Q 388 2403 628 3084 
Q 909 3875 1497 4659 
L 1900 4659 
Q 1522 4009 1400 3731 
Q 1209 3300 1100 2831 
Q 966 2247 966 1656 
Q 966 153 1900 -1347 
L 1497 -1347 
z
" transform="scale(0.015625)"/>
      <path id="ArialMT-29" d="M 791 -1347 
L 388 -1347 
Q 1322 153 1322 1656 
Q 1322 2244 1188 2822 
Q 1081 3291 891 3722 
Q 769 4003 388 4659 
L 791 4659 
Q 1378 3875 1659 3084 
Q 1900 2403 1900 1659 
Q 1900 816 1576 28 
Q 1253 -759 791 -1347 
z
" transform="scale(0.015625)"/>
     </defs>
     <use xlink:href="#ArialMT-4d"/>
     <use xlink:href="#ArialMT-6f" x="83.300781"/>
     <use xlink:href="#ArialMT-64" x="138.916016"/>
     <use xlink:href="#ArialMT-65" x="194.53125"/>
     <use xlink:href="#ArialMT-6c" x="250.146484"/>
     <use xlink:href="#ArialMT-20" x="272.363281"/>
     <use xlink:href="#ArialMT-54" x="298.396484"/>
     <use xlink:href="#ArialMT-72" x="355.730469"/>
     <use xlink:href="#ArialMT-61" x="389.03125"/>
     <use xlink:href="#ArialMT-69" x="444.646484"/>
     <use xlink:href="#ArialMT-6e" x="466.863281"/>
     <use xlink:href="#ArialMT-69" x="522.478516"/>
     <use xlink:href="#ArialMT-6e" x="544.695312"/>
     <use xlink:href="#ArialMT-67" x="600.310547"/>
     <use xlink:href="#ArialMT-20" x="655.925781"/>
     <use xlink:href="#ArialMT-26" x="683.708984"/>
     <use xlink:href="#ArialMT-20" x="750.408203"/>
     <use xlink:href="#ArialMT-56" x="778.191406"/>
     <use xlink:href="#ArialMT-61" x="837.515625"/>
     <use xlink:href="#ArialMT-6c" x="893.130859"/>
     <use xlink:href="#ArialMT-69" x="915.347656"/>
     <use xlink:href="#ArialMT-64" x="937.564453"/>
     <use xlink:href="#ArialMT-61" x="993.179688"/>
     <use xlink:href="#ArialMT-74" x="1048.794922"/>
     <use xlink:href="#ArialMT-69" x="1076.578125"/>
     <use xlink:href="#ArialMT-6f" x="1098.794922"/>
     <use xlink:href="#ArialMT-6e" x="1154.410156"/>
     <use xlink:href="#ArialMT-20" x="1210.025391"/>
     <use xlink:href="#ArialMT-4c" x="1237.808594"/>
     <use xlink:href="#ArialMT-6f" x="1293.423828"/>
     <use xlink:href="#ArialMT-73" x="1349.039062"/>
     <use xlink:href="#ArialMT-73" x="1399.039062"/>
     <use xlink:href="#ArialMT-20" x="1449.039062"/>
     <use xlink:href="#ArialMT-28" x="1476.822266"/>
     <use xlink:href="#ArialMT-53" x="1510.123047"/>
     <use xlink:href="#ArialMT-63" x="1576.822266"/>
     <use xlink:href="#ArialMT-61" x="1626.822266"/>
     <use xlink:href="#ArialMT-6c" x="1682.4375"/>
     <use xlink:href="#ArialMT-65" x="1704.654297"/>
     <use xlink:href="#ArialMT-64" x="1760.269531"/>
     <use xlink:href="#ArialMT-20" x="1815.884766"/>
     <use xlink:href="#ArialMT-54" x="1841.917969"/>
     <use xlink:href="#ArialMT-61" x="1891.876953"/>
     <use xlink:href="#ArialMT-72" x="1947.492188"/>
     <use xlink:href="#ArialMT-67" x="1980.792969"/>
     <use xlink:href="#ArialMT-65" x="2036.408203"/>
     <use xlink:href="#ArialMT-74" x="2092.023438"/>
     <use xlink:href="#ArialMT-73" x="2119.806641"/>
     <use xlink:href="#ArialMT-29" x="2169.806641"/>
    </g>
   </g>
   <g id="legend_1">
    <g id="line2d_35">
     <path d="M 512.810938 64.619687 
L 522.810938 64.619687 
L 532.810938 64.619687 
" style="fill: none; stroke: #1f77b4; stroke-width: 1.5; stroke-linecap: round"/>
    </g>
    <g id="text_20">
     <!-- Training Loss (MSE) -->
     <g style="fill: #262626" transform="translate(540.810938 68.119687) scale(0.1 -0.1)">
      <use xlink:href="#ArialMT-54"/>
      <use xlink:href="#ArialMT-72" x="57.333984"/>
      <use xlink:href="#ArialMT-61" x="90.634766"/>
      <use xlink:href="#ArialMT-69" x="146.25"/>
      <use xlink:href="#ArialMT-6e" x="168.466797"/>
      <use xlink:href="#ArialMT-69" x="224.082031"/>
      <use xlink:href="#ArialMT-6e" x="246.298828"/>
      <use xlink:href="#ArialMT-67" x="301.914062"/>
      <use xlink:href="#ArialMT-20" x="357.529297"/>
      <use xlink:href="#ArialMT-4c" x="385.3125"/>
      <use xlink:href="#ArialMT-6f" x="440.927734"/>
      <use xlink:href="#ArialMT-73" x="496.542969"/>
      <use xlink:href="#ArialMT-73" x="546.542969"/>
      <use xlink:href="#ArialMT-20" x="596.542969"/>
      <use xlink:href="#ArialMT-28" x="624.326172"/>
      <use xlink:href="#ArialMT-4d" x="657.626953"/>
      <use xlink:href="#ArialMT-53" x="740.927734"/>
      <use xlink:href="#ArialMT-45" x="807.626953"/>
      <use xlink:href="#ArialMT-29" x="874.326172"/>
     </g>
    </g>
    <g id="line2d_36">
     <path d="M 512.810938 79.004062 
L 522.810938 79.004062 
L 532.810938 79.004062 
" style="fill: none; stroke: #ff7f0e; stroke-width: 1.5; stroke-linecap: round"/>
    </g>
    <g id="text_21">
     <!-- Validation Loss (MSE) -->
     <g style="fill: #262626" transform="translate(540.810938 82.504062) scale(0.1 -0.1)">
      <use xlink:href="#ArialMT-56"/>
      <use xlink:href="#ArialMT-61" x="59.324219"/>
      <use xlink:href="#ArialMT-6c" x="114.939453"/>
      <use xlink:href="#ArialMT-69" x="137.15625"/>
      <use xlink:href="#ArialMT-64" x="159.373047"/>
      <use xlink:href="#ArialMT-61" x="214.988281"/>
      <use xlink:href="#ArialMT-74" x="270.603516"/>
      <use xlink:href="#ArialMT-69" x="298.386719"/>
      <use xlink:href="#ArialMT-6f" x="320.603516"/>
      <use xlink:href="#ArialMT-6e" x="376.21875"/>
      <use xlink:href="#ArialMT-20" x="431.833984"/>
      <use xlink:href="#ArialMT-4c" x="459.617188"/>
      <use xlink:href="#ArialMT-6f" x="515.232422"/>
      <use xlink:href="#ArialMT-73" x="570.847656"/>
      <use xlink:href="#ArialMT-73" x="620.847656"/>
      <use xlink:href="#ArialMT-20" x="670.847656"/>
      <use xlink:href="#ArialMT-28" x="698.630859"/>
      <use xlink:href="#ArialMT-4d" x="731.931641"/>
      <use xlink:href="#ArialMT-53" x="815.232422"/>
      <use xlink:href="#ArialMT-45" x="881.931641"/>
      <use xlink:href="#ArialMT-29" x="948.630859"/>
     </g>
    </g>
   </g>
  </g>
 </g>
 <defs>
  <clipPath id="pb39b55ddf3">
   <rect x="90" y="51.84" width="558" height="332.64"/>
  </clipPath>
 </defs>
</svg>
